<?xml version="1.0" standalone="no"?><svg xmlns="http://www.w3.org/2000/svg" viewBox="0 0 1440 320"><path fill="#0099ff" fill-opacity="1" d="M0,128L34.3,133.3C68.6,139,137,149,206,144C274.3,139,343,117,411,138.7C480,160,549,224,617,224C685.7,224,754,160,823,138.7C891.4,117,960,139,1029,144C1097.1,149,1166,139,1234,122.7C1302.9,107,1371,85,1406,74.7L1440,64L1440,320L1405.7,320C1371.4,320,1303,320,1234,320C1165.7,320,1097,320,1029,320C960,320,891,320,823,320C754.3,320,686,320,617,320C548.6,320,480,320,411,320C342.9,320,274,320,206,320C137.1,320,69,320,34,320L0,320Z"></path></svg>